<?xml version="1.0" standalone="no"?>
<!DOCTYPE svg PUBLIC "-//W3C//DTD SVG 20010904//EN"
 "http://www.w3.org/TR/2001/REC-SVG-20010904/DTD/svg10.dtd">
<svg version="1.0" xmlns="http://www.w3.org/2000/svg"
 width="969.000000pt" height="269.000000pt" viewBox="0 0 969.000000 269.000000"
 preserveAspectRatio="xMidYMid meet">

<g transform="translate(0.000000,269.000000) scale(0.100000,-0.100000)"
fill="#000000" stroke="none">
<path d="M9085 2325 c-42 -15 -99 -69 -93 -87 2 -6 26 -17 52 -23 113 -29 186
-123 186 -240 0 -34 -12 -118 -26 -186 -46 -223 -23 -375 69 -455 23 -19 59
-40 82 -46 44 -13 68 -28 44 -28 -29 0 -135 -59 -155 -87 -56 -77 -58 -177 -8
-387 31 -129 35 -161 30 -221 -9 -97 -39 -154 -96 -182 -55 -29 -94 -29 -155
-2 -83 37 -170 2 -163 -65 9 -93 243 -124 420 -56 125 47 214 166 225 300 7
88 -7 161 -64 330 -35 100 -47 151 -47 197 -1 57 2 64 32 96 20 21 52 40 78
47 84 24 80 58 -11 109 -63 36 -89 72 -106 148 -14 60 -5 101 56 273 80 221
47 427 -82 526 -66 50 -187 68 -268 39z"/>
<path d="M471 2314 c-150 -32 -254 -120 -292 -246 -33 -107 -24 -184 45 -391
31 -93 56 -185 56 -208 0 -73 -40 -123 -117 -145 -29 -8 -55 -19 -58 -24 -11
-18 15 -58 43 -68 53 -18 110 -79 127 -135 22 -75 20 -94 -35 -259 -56 -167
-69 -257 -51 -352 14 -78 45 -140 94 -189 50 -50 93 -68 183 -74 61 -5 79 -2
118 16 25 13 57 37 72 54 30 35 31 34 -56 57 -32 9 -60 27 -96 64 -83 82 -90
137 -48 354 35 182 32 302 -10 380 -34 61 -81 100 -151 123 -40 14 -46 18 -30
24 201 69 234 166 159 472 -31 127 -36 157 -30 218 8 87 37 148 82 176 53 32
104 35 167 9 39 -16 64 -21 89 -16 46 8 81 46 76 81 -9 76 -175 115 -337 79z"/>
<path d="M6974 2240 c-39 -12 -45 -26 -33 -76 13 -58 12 -1357 -2 -1430 -22
-120 -87 -216 -173 -255 -56 -25 -145 -25 -195 1 -75 38 -131 134 -131 225 l0
41 73 -1 c61 0 79 4 119 27 63 37 114 99 153 183 41 90 56 151 56 237 1 125
-50 216 -146 263 -56 27 -156 26 -211 -3 -128 -66 -234 -278 -264 -525 -23
-196 -97 -402 -160 -447 -65 -46 -119 -2 -139 113 -23 135 -6 847 21 873 22
21 297 45 373 32 28 -4 32 35 6 61 -29 29 -78 39 -233 49 -76 4 -141 11 -144
15 -4 4 -1 89 7 189 7 101 14 187 14 192 0 31 -204 91 -227 68 -7 -7 -16 -100
-22 -219 -6 -114 -15 -214 -19 -220 -6 -9 -41 -13 -116 -13 -135 0 -171 -11
-171 -52 0 -25 6 -32 43 -48 24 -11 77 -24 117 -31 41 -6 85 -15 98 -20 l23
-9 -7 -332 c-7 -369 -15 -433 -66 -536 -38 -77 -71 -102 -114 -87 -39 14 -62
66 -75 174 -12 105 -7 192 18 292 19 78 15 94 -31 115 -40 19 -46 42 -46 175
0 51 -6 104 -16 132 -17 49 -81 117 -112 117 -9 0 -53 16 -97 35 -98 43 -147
51 -216 35 -147 -36 -249 -246 -280 -580 -21 -231 -99 -470 -169 -520 -65 -46
-119 -2 -139 113 -23 135 -6 847 21 873 22 21 297 45 373 32 28 -4 32 35 6 61
-29 29 -78 39 -233 49 -76 4 -141 11 -144 15 -4 4 -1 89 7 189 7 101 14 187
14 192 0 31 -204 91 -227 68 -7 -7 -16 -100 -22 -219 -6 -114 -15 -214 -19
-220 -6 -9 -41 -13 -116 -13 -135 0 -171 -11 -171 -52 0 -25 6 -32 43 -48 24
-11 76 -24 117 -31 129 -20 115 35 115 -435 0 -400 1 -411 23 -484 51 -164
120 -249 218 -271 43 -10 63 -10 96 0 58 17 135 98 181 189 l35 71 20 -59 c40
-118 114 -189 196 -190 16 0 46 -5 67 -12 103 -30 211 64 275 240 l28 74 21
-66 c31 -96 92 -155 177 -171 76 -14 159 39 228 148 l37 57 12 -42 c21 -71 72
-157 114 -193 52 -45 129 -63 189 -46 60 18 136 99 183 195 l38 77 29 -53 c57
-105 137 -164 253 -188 134 -28 269 15 371 116 l54 54 0 -69 c0 -82 10 -97 76
-107 41 -6 132 0 141 10 2 2 -1 32 -7 67 -5 35 -10 117 -10 182 l0 117 39 0
c58 0 93 -35 157 -161 36 -70 67 -118 87 -133 43 -32 111 -49 165 -41 124 19
217 212 255 534 18 150 8 192 -42 176 -25 -8 -28 -16 -51 -168 -27 -172 -46
-250 -74 -313 -32 -70 -58 -94 -100 -94 -43 0 -64 25 -96 111 -25 69 -99 153
-144 165 -35 8 -33 16 10 39 46 25 143 129 178 191 52 92 76 183 76 286 0 159
-42 256 -120 279 -94 28 -178 -38 -261 -209 -28 -57 -53 -101 -55 -99 -6 6 15
507 26 632 6 61 15 146 22 190 17 121 17 117 -25 138 -45 21 -177 31 -223 17z
m466 -851 c18 -33 24 -157 11 -239 -27 -177 -141 -317 -249 -308 l-37 3 1 85
c2 109 25 202 79 316 50 104 106 164 155 164 19 0 33 -7 40 -21z m-2300 -34
c43 -22 72 -87 78 -171 4 -61 1 -76 -16 -100 -17 -24 -23 -61 -36 -194 -31
-330 -100 -477 -220 -468 -35 3 -43 8 -62 42 -36 64 -49 156 -48 331 2 231 43
401 123 514 40 56 122 76 181 46z m1547 -53 c26 -16 34 -63 23 -138 -26 -187
-103 -304 -202 -304 -45 0 -53 18 -43 97 16 132 80 292 133 334 25 19 67 25
89 11z"/>
<path d="M1980 2113 c-115 -41 -242 -248 -306 -501 -34 -136 -34 -328 0 -437
57 -179 178 -287 341 -302 l66 -6 -6 -50 c-24 -168 -126 -310 -273 -380 -51
-24 -81 -31 -153 -35 -210 -12 -338 74 -339 226 0 63 8 81 70 149 59 64 80
109 80 167 0 52 -25 86 -62 86 -154 0 -250 -164 -226 -386 14 -131 64 -218
165 -287 93 -63 173 -82 348 -81 169 0 239 14 337 66 123 66 212 190 260 363
22 79 23 92 25 727 2 460 -1 649 -9 654 -6 4 -72 13 -147 20 -151 15 -150 15
-171 7z m89 -247 c15 -15 22 -35 21 -57 0 -19 -3 -196 -6 -394 -4 -262 -8
-362 -17 -367 -21 -13 -98 -9 -126 8 -84 50 -141 250 -126 449 13 190 65 332
134 370 42 23 94 19 120 -9z"/>
<path d="M2563 1452 c-18 -11 -55 -850 -42 -942 11 -80 33 -112 85 -123 50
-11 143 -2 160 15 6 7 22 69 34 137 28 160 62 278 108 371 l37 75 6 -200 c4
-110 12 -216 18 -236 25 -81 81 -119 173 -119 69 1 123 26 176 83 34 37 42 43
42 26 0 -60 62 -112 175 -145 81 -25 257 -24 339 0 109 32 156 78 156 152 0
67 -34 107 -220 256 -169 135 -205 186 -191 264 23 126 150 188 234 114 46
-40 81 -39 121 4 53 56 75 176 39 209 -34 30 -105 40 -195 27 -159 -23 -283
-75 -366 -153 -64 -61 -90 -146 -72 -234 19 -92 77 -161 244 -297 157 -127
194 -173 182 -222 -9 -34 -66 -58 -124 -51 -31 3 -64 19 -113 53 -107 75 -134
88 -169 76 l-29 -10 19 44 c27 61 52 192 45 226 -6 25 -11 29 -38 26 -30 -3
-31 -6 -43 -68 -30 -163 -113 -280 -173 -243 -42 26 -46 56 -44 317 3 273 -2
313 -47 358 -22 22 -38 28 -71 28 -36 0 -47 -6 -79 -39 -41 -43 -99 -157 -157
-306 l-38 -100 -3 291 c-2 217 -5 294 -15 302 -14 12 -113 42 -136 42 -9 0
-22 -4 -28 -8z"/>
<path d="M7972 614 c-67 -18 -100 -35 -136 -70 -24 -25 -27 -34 -21 -68 3 -22
7 -41 8 -42 20 -16 136 -65 166 -70 83 -13 271 70 271 120 0 51 -143 148 -214
145 -12 0 -45 -7 -74 -15z"/>
</g>
</svg>
